<svg width="55" height="55" viewBox="0 0 55 55" fill="none" xmlns="http://www.w3.org/2000/svg">
<circle cx="27.5" cy="27.5" r="27.5" fill="#0B041C"/>
<g filter="url(#filter0_d_292_2355)">
<path fill-rule="evenodd" clip-rule="evenodd" d="M14.576 10.346C14.576 10.5387 15.2549 11.5859 16.085 12.6734C20.1125 17.9507 24.2805 20.6323 28.9569 20.9552C31.1846 21.1089 31.7563 21.2833 33.2634 22.2693C40.1078 26.7465 41.0285 32.5087 35.6651 37.2968C33.6482 39.0969 29.3092 41.644 26.6576 42.5841C23.8285 43.587 20.8502 43.3644 19.2118 42.0275C17.4497 40.5894 15.9759 37.6109 14.8495 33.2119C13.1345 26.5124 13.241 21.1961 15.1284 19.2928C15.6834 18.7336 15.8584 18.2925 15.7115 17.8251C15.5956 17.4579 15.3767 17.1571 15.2249 17.1571C14.6264 17.1571 12.9879 19.1821 12.461 20.5731C11.6229 22.7862 11.959 28.5368 13.2136 33.4443C16.0182 44.4132 20.817 47.3285 29.3153 43.227C34.3992 40.7733 38.0457 37.9208 39.6687 35.1288C40.7793 33.2177 41.0489 29.82 40.2556 27.7259C39.5295 25.8087 37.5908 23.3579 35.7419 22.019C34.9322 21.4328 34.2697 20.8511 34.2697 20.7267C34.2697 20.6024 34.96 20.2401 35.8032 19.9217C37.9169 19.1235 41.6959 16.883 41.9196 16.2951C42.266 15.385 41.4392 14.9937 40.4732 15.6102C38.365 16.9559 34.2226 18.8517 33.0865 18.9901C31.9 19.1349 31.8025 19.0724 30.751 17.4865C28.4452 14.0094 24.9817 11.5546 20.8844 10.4938C18.6465 9.91437 14.576 9.819 14.576 10.346ZM21.8252 12.4892C24.7438 13.5276 27.5022 15.6233 29.1736 18.0728L30.1737 19.5386L28.4284 19.3338C25.7246 19.0164 22.4199 17.1581 19.923 14.5504C18.7578 13.3333 17.8045 12.164 17.8045 11.9518C17.8045 11.5003 19.791 11.7656 21.8252 12.4892ZM25.302 25.6635C24.542 26.1544 24.335 26.4571 24.5672 26.739C24.7912 27.0111 24.5145 28.1224 23.6648 30.3636C21.8633 35.1145 21.4039 35.9631 20.4396 36.3192C19.7383 36.5783 19.9963 36.6376 21.8401 36.6418C23.504 36.6454 23.9086 36.5692 23.3736 36.3524C22.5574 36.0217 22.4393 35.108 23.0017 33.4814C23.3403 32.5016 23.4333 32.4563 25.1083 32.4563C26.9921 32.4563 27.2284 32.6985 27.7114 35.123C27.8654 35.8961 27.7579 36.0364 26.8 36.3144C25.9373 36.5647 26.4442 36.6295 29.2656 36.6295C31.9911 36.6295 32.5748 36.5588 31.7751 36.3257C30.5011 35.9547 30.546 36.0403 28.4375 29.9336C27.4951 27.2035 26.6418 24.9721 26.5417 24.975C26.4419 24.9779 25.8837 25.2878 25.302 25.6635ZM26.6466 31.2874C26.8516 32.111 26.8187 32.1308 25.2361 32.1308C24.345 32.1308 23.6157 32.0022 23.6157 31.845C23.6157 31.6878 23.8508 30.9922 24.1384 30.2988C24.4258 29.6055 24.8016 28.6722 24.973 28.2246C25.2752 27.4369 25.3033 27.459 25.8608 28.9274C26.1775 29.7614 26.5311 30.8232 26.6466 31.2874Z" fill="white"/>
</g>
<defs>
<filter id="filter0_d_292_2355" x="11" y="9" width="32" height="37" filterUnits="userSpaceOnUse" color-interpolation-filters="sRGB">
<feFlood flood-opacity="0" result="BackgroundImageFix"/>
<feColorMatrix in="SourceAlpha" type="matrix" values="0 0 0 0 0 0 0 0 0 0 0 0 0 0 0 0 0 0 127 0" result="hardAlpha"/>
<feOffset/>
<feGaussianBlur stdDeviation="0.5"/>
<feComposite in2="hardAlpha" operator="out"/>
<feColorMatrix type="matrix" values="0 0 0 0 1 0 0 0 0 1 0 0 0 0 1 0 0 0 1 0"/>
<feBlend mode="normal" in2="BackgroundImageFix" result="effect1_dropShadow_292_2355"/>
<feBlend mode="normal" in="SourceGraphic" in2="effect1_dropShadow_292_2355" result="shape"/>
</filter>
</defs>
</svg>
