<svg width="304" height="131" viewBox="0 0 304 131" fill="none" xmlns="http://www.w3.org/2000/svg">
<path fill-rule="evenodd" clip-rule="evenodd" d="M9.70854 1.29505C9.70854 2.01632 12.2674 5.93578 15.3957 10.0063C30.5748 29.7584 46.2832 39.7952 63.908 41.0038C72.3037 41.5789 74.4585 42.2319 80.1384 45.9223C105.934 62.6796 109.404 84.247 89.1899 102.168C81.5888 108.905 65.2355 118.439 55.2422 121.958C44.5797 125.711 33.3551 124.878 27.18 119.874C20.5389 114.492 14.9844 103.344 10.7391 86.8787C4.2757 61.8036 4.67723 41.9054 11.7904 34.7817C13.882 32.6885 14.5415 31.0376 13.9879 29.2881C13.5511 27.9138 12.7261 26.788 12.1542 26.788C9.89836 26.788 3.72329 34.3674 1.73754 39.5735C-1.42118 47.8571 -0.154528 69.3806 4.57381 87.7486C15.1438 128.804 33.2298 139.715 65.2586 124.364C84.419 115.18 98.1623 104.503 104.279 94.0536C108.465 86.9006 109.481 74.1834 106.491 66.3457C103.755 59.1696 96.4479 49.9965 89.4795 44.9854C86.4278 42.7912 83.931 40.6139 83.931 40.1485C83.931 39.6831 86.5325 38.3271 89.7106 37.1355C97.6768 34.1481 111.919 25.7621 112.762 23.5618C114.068 20.1552 110.952 18.6908 107.311 20.9984C99.3656 26.0351 83.7534 33.1308 79.4716 33.6486C75 34.1907 74.6325 33.9568 70.6695 28.021C61.9794 15.0065 48.926 5.81882 33.4841 1.84819C25.0495 -0.320493 9.70854 -0.677475 9.70854 1.29505ZM37.0297 9.31673C48.0292 13.2033 58.4253 21.0471 64.7244 30.2152L68.494 35.7015L61.9162 34.9352C51.7258 33.7473 39.271 26.7917 29.8606 17.0314C25.4693 12.4759 21.8762 8.09959 21.8762 7.30522C21.8762 5.61536 29.3629 6.60832 37.0297 9.31673ZM50.133 58.6262C47.2688 60.4635 46.4888 61.5965 47.3637 62.6516C48.2081 63.6702 47.1653 67.8296 43.9628 76.218C37.1733 94 35.4418 97.1763 31.8074 98.5091C29.1646 99.479 30.1368 99.7007 37.0857 99.7165C43.3569 99.7299 44.8815 99.4448 42.8653 98.6334C39.7893 97.3956 39.344 93.9756 41.4636 87.8875C42.74 84.2202 43.0904 84.0509 49.403 84.0509C56.5028 84.0509 57.3934 84.9573 59.2137 94.0317C59.7941 96.9253 59.3889 97.4504 55.7788 98.4909C52.5276 99.4278 54.4379 99.6702 65.0712 99.6702C75.3431 99.6702 77.543 99.4058 74.5291 98.5335C69.7278 97.1446 69.8969 97.465 61.9502 74.6086C58.3985 64.3902 55.1826 56.0384 54.8054 56.0493C54.4294 56.0603 52.3256 57.2202 50.133 58.6262ZM292.606 57.247C292.17 57.9536 285.495 58.4653 276.716 58.4653C267.436 58.4653 261.578 58.9368 261.578 59.6837C261.578 60.3538 262.564 60.9021 263.768 60.9021C268.206 60.9021 268.879 63.329 268.879 79.3346C268.879 96.935 268.127 98.6846 260.579 98.6529C254.642 98.6273 254.023 98.1315 247.718 88.3188L242.304 79.8926L246.754 78.3611C252.429 76.4081 254.478 73.5596 254.028 68.2512C253.753 65.0116 252.706 63.3778 249.535 61.2456C245.743 58.6968 244.051 58.4653 229.154 58.4653C213.801 58.4653 208.411 59.6971 216.592 61.3358L220.275 62.0729L219.938 79.4589L219.6 96.8436L215.341 98.2984C211.561 99.5886 212.584 99.7433 224.467 99.68C231.828 99.6398 236.756 99.3401 235.418 99.0135C230.344 97.7757 228.726 94.9954 228.726 87.5171C228.726 77.211 231.468 77.8689 238.511 89.8661L244.039 99.2804L267.285 99.8895C287.017 100.406 290.88 100.816 292.844 102.598C295.076 104.623 295.292 104.423 298.978 96.9387C302.864 89.0486 303.055 84.8818 299.243 91.1588C295.538 97.2591 282.709 101.066 278.856 97.2092C278.007 96.3587 277.396 92.2821 277.396 87.4623V79.1774H282.115C287.209 79.1774 288.539 80.2374 290.521 85.8784C291.616 88.995 291.818 88.0069 291.896 79.1774L291.989 68.8214L289.577 72.7811C287.494 76.2022 286.494 76.7407 282.223 76.7407H277.281L277.642 69.126C277.974 62.1557 278.249 61.4771 280.902 61.1006C286.172 60.355 291.77 62.1484 295.728 65.8498C297.874 67.8589 299.775 69.3489 299.95 69.1613C300.125 68.9749 299.191 65.9424 297.873 62.425C295.532 56.1736 294.123 54.7883 292.606 57.247ZM180.664 58.9807C172.427 62.6772 167.54 70.4247 167.54 79.7866C167.54 93.0472 176.559 101.108 191.395 101.108C210.142 101.108 219.725 77.2317 206.353 63.8419C200.215 57.6953 188.478 55.4743 180.664 58.9807ZM110.7 59.6276C110.7 60.3282 112.01 60.9021 113.612 60.9021C115.213 60.9021 116.855 61.7695 117.262 62.8295C118.527 66.13 118.07 92.6098 116.705 95.1647C115.991 96.4988 114.211 98.073 112.75 98.6627C110.862 99.4241 112.735 99.7433 119.217 99.7641C127.918 99.7933 128.168 99.7178 124.571 98.1497C122.495 97.2457 120.442 95.5778 120.008 94.4423C118.903 91.5621 119.014 65.7718 120.13 65.7938C120.631 65.8035 123.697 72.9163 126.944 81.5995L132.844 97.387L137.51 93.4639C140.878 90.6324 141.731 89.291 140.576 88.6441C139.336 87.9496 140.11 85.0792 144.001 75.9256C148.778 64.6911 149.058 64.311 149.636 68.2743C149.971 70.5673 150.071 77.8397 149.858 84.4334L149.471 96.4221L145.599 98.1083C141.99 99.68 142.594 99.7909 154.503 99.7372C163.74 99.6958 166.297 99.3864 163.732 98.6176C161.782 98.034 159.738 96.8473 159.189 95.9811C157.737 93.6918 157.927 66.0374 159.413 63.2584C160.136 61.9072 161.952 60.9021 163.672 60.9021C165.321 60.9021 166.671 60.3538 166.671 59.6837C166.671 58.9892 163.07 58.4653 158.304 58.4653H149.938L144.797 70.9535C141.971 77.8214 139.246 83.8815 138.744 84.4188C138.24 84.9561 135.372 79.4735 132.37 72.2352L126.911 59.0745L118.806 58.7139C113.748 58.4897 110.7 58.8333 110.7 59.6276ZM196.342 61.0093C208.11 70.2785 205.706 96.9423 192.885 99.351C181.389 101.51 173.05 87.8583 176.429 72.4119C179.092 60.2441 188.518 54.8468 196.342 61.0093ZM241.496 61.6769C244.662 62.8941 246.038 67.9442 244.485 72.6519C243.197 76.5653 240.893 78.2832 240.893 75.3335C240.893 74.4916 239.999 74.7365 238.668 75.9427C237.444 77.0514 234.706 77.9591 232.584 77.9591H228.726V70.8926C228.726 67.006 229.383 63.1682 230.186 62.3641C231.752 60.7961 238.186 60.4062 241.496 61.6769ZM55.2008 79.6757C55.9735 82.7582 55.8494 82.8325 49.8848 82.8325C46.5265 82.8325 43.7779 82.3513 43.7779 81.7628C43.7779 81.1743 44.6637 78.5707 45.7478 75.9756C46.8307 73.3805 48.2471 69.8875 48.8932 68.2122C50.032 65.2638 50.1379 65.3466 52.2392 70.8426C53.4329 73.9641 54.7652 77.9384 55.2008 79.6757Z" fill="#9F1836"/>
<path d="M115.564 124H113.476V111.274H115.564V116.836H117.202L121.126 111.274H123.52L118.984 117.448L123.574 124H121.144L117.4 118.69H115.564V124ZM125.74 119.482C125.8 118.666 125.836 117.856 125.848 117.052C125.872 116.236 125.896 115.39 125.92 114.514H133.012V124H130.942V116.296H127.828C127.804 116.884 127.78 117.472 127.756 118.06C127.744 118.636 127.72 119.212 127.684 119.788C127.672 120.004 127.648 120.262 127.612 120.562C127.588 120.85 127.552 121.144 127.504 121.444C127.456 121.732 127.384 122.008 127.288 122.272C127.192 122.524 127.072 122.758 126.928 122.974C126.676 123.334 126.34 123.598 125.92 123.766C125.512 123.922 125.038 124 124.498 124H123.994V122.236C124.354 122.236 124.642 122.152 124.858 121.984C125.086 121.804 125.254 121.582 125.362 121.318C125.482 121.042 125.566 120.748 125.614 120.436C125.674 120.112 125.716 119.794 125.74 119.482ZM142.051 114.514H144.301L141.565 122.488C141.217 123.472 140.899 124.342 140.611 125.098C140.335 125.854 140.005 126.484 139.621 126.988C139.237 127.492 138.763 127.87 138.199 128.122C137.647 128.386 136.921 128.518 136.021 128.518H135.715V126.682C135.763 126.682 135.811 126.682 135.859 126.682C136.219 126.682 136.537 126.64 136.813 126.556C137.101 126.472 137.359 126.346 137.587 126.178C137.815 126.01 138.013 125.788 138.181 125.512C138.349 125.248 138.505 124.942 138.649 124.594L134.347 114.514H136.759L139.711 122.02L142.051 114.514ZM147.168 116.476C147.552 115.996 148.032 115.654 148.608 115.45C149.184 115.234 149.766 115.126 150.354 115.126C151.002 115.126 151.578 115.228 152.082 115.432C152.598 115.636 153.036 115.924 153.396 116.296C153.756 116.668 154.032 117.118 154.224 117.646C154.416 118.162 154.512 118.744 154.512 119.392C154.512 120.088 154.404 120.73 154.188 121.318C153.984 121.906 153.678 122.41 153.27 122.83C152.874 123.238 152.388 123.556 151.812 123.784C151.248 124.012 150.606 124.126 149.886 124.126C148.938 124.114 148.158 123.922 147.546 123.55C146.946 123.178 146.472 122.698 146.124 122.11C145.776 121.522 145.536 120.862 145.404 120.13C145.272 119.386 145.206 118.636 145.206 117.88C145.206 117.124 145.26 116.35 145.368 115.558C145.488 114.766 145.722 114.064 146.07 113.452C146.358 112.972 146.688 112.594 147.06 112.318C147.444 112.03 147.864 111.814 148.32 111.67C148.776 111.514 149.262 111.4 149.778 111.328C150.294 111.256 150.828 111.184 151.38 111.112C151.8 111.064 152.226 111.016 152.658 110.968C153.102 110.92 153.534 110.824 153.954 110.68V112.642C153.738 112.738 153.438 112.816 153.054 112.876C152.67 112.924 152.262 112.972 151.83 113.02C151.398 113.056 150.972 113.098 150.552 113.146C150.132 113.182 149.76 113.224 149.436 113.272C149.052 113.332 148.71 113.464 148.41 113.668C148.122 113.86 147.888 114.1 147.708 114.388C147.528 114.664 147.396 114.988 147.312 115.36C147.228 115.72 147.18 116.092 147.168 116.476ZM149.94 122.344C150.348 122.344 150.708 122.266 151.02 122.11C151.344 121.954 151.614 121.756 151.83 121.516C152.046 121.264 152.208 120.976 152.316 120.652C152.424 120.316 152.478 119.968 152.478 119.608C152.478 119.236 152.418 118.888 152.298 118.564C152.19 118.228 152.028 117.946 151.812 117.718C151.608 117.478 151.356 117.292 151.056 117.16C150.756 117.028 150.414 116.962 150.03 116.962C149.634 116.962 149.274 117.028 148.95 117.16C148.638 117.28 148.368 117.46 148.14 117.7C147.924 117.928 147.75 118.204 147.618 118.528C147.486 118.852 147.414 119.2 147.402 119.572C147.402 119.932 147.45 120.28 147.546 120.616C147.642 120.94 147.792 121.228 147.996 121.48C148.212 121.732 148.476 121.942 148.788 122.11C149.112 122.266 149.496 122.344 149.94 122.344ZM156.305 124V114.514H158.357V118.42H162.569V114.514H164.621V124H162.569V120.202H158.357V124H156.305ZM168.76 124H166.852V114.514H168.904V121.03L173.728 114.514H175.582V124H173.53V117.61C173.518 117.634 171.928 119.764 168.76 124ZM177.821 124V114.514H179.855V118.384H181.313L183.743 114.514H186.083L183.077 119.032L186.317 124H183.941L181.439 120.166H179.855V124H177.821ZM193.416 122.83C193.104 123.274 192.69 123.604 192.174 123.82C191.658 124.024 191.082 124.126 190.446 124.126C189.942 124.126 189.48 124.066 189.06 123.946C188.652 123.826 188.292 123.646 187.98 123.406C187.668 123.154 187.422 122.848 187.242 122.488C187.062 122.116 186.972 121.696 186.972 121.228C186.972 120.712 187.074 120.274 187.278 119.914C187.482 119.542 187.758 119.242 188.106 119.014C188.466 118.786 188.886 118.618 189.366 118.51C189.846 118.39 190.35 118.33 190.878 118.33H193.308C193.308 117.634 193.152 117.094 192.84 116.71C192.528 116.326 191.982 116.128 191.202 116.116C190.746 116.116 190.35 116.194 190.014 116.35C189.69 116.506 189.474 116.764 189.366 117.124H187.26C187.332 116.62 187.494 116.194 187.746 115.846C188.01 115.498 188.322 115.21 188.682 114.982C189.054 114.754 189.462 114.592 189.906 114.496C190.362 114.4 190.818 114.352 191.274 114.352C191.862 114.352 192.408 114.43 192.912 114.586C193.416 114.742 193.854 115.006 194.226 115.378C194.646 115.81 194.928 116.326 195.072 116.926C195.216 117.526 195.288 118.18 195.288 118.888V124H193.506L193.416 122.83ZM193.308 119.788H191.328C190.98 119.788 190.632 119.818 190.284 119.878C189.936 119.926 189.636 120.052 189.384 120.256C189.144 120.448 189.024 120.73 189.024 121.102C189.024 121.558 189.186 121.906 189.51 122.146C189.846 122.374 190.254 122.488 190.734 122.488C191.106 122.488 191.448 122.44 191.76 122.344C192.084 122.248 192.36 122.092 192.588 121.876C192.816 121.648 192.99 121.366 193.11 121.03C193.242 120.682 193.308 120.268 193.308 119.788ZM202.343 114.514H206.393C206.813 114.514 207.239 114.538 207.671 114.586C208.103 114.622 208.493 114.724 208.841 114.892C209.201 115.06 209.489 115.306 209.705 115.63C209.933 115.942 210.053 116.368 210.065 116.908C210.065 117.328 209.969 117.718 209.777 118.078C209.585 118.438 209.279 118.732 208.859 118.96C209.435 119.116 209.855 119.392 210.119 119.788C210.395 120.172 210.533 120.634 210.533 121.174C210.533 121.678 210.431 122.116 210.227 122.488C210.023 122.848 209.753 123.142 209.417 123.37C209.081 123.586 208.691 123.748 208.247 123.856C207.803 123.952 207.335 124 206.843 124H202.343V114.514ZM204.413 116.224V118.402H205.655C205.931 118.402 206.213 118.402 206.501 118.402C206.801 118.39 207.065 118.348 207.293 118.276C207.533 118.204 207.725 118.09 207.869 117.934C208.025 117.778 208.103 117.556 208.103 117.268C208.103 117.016 208.043 116.824 207.923 116.692C207.815 116.548 207.677 116.44 207.509 116.368C207.341 116.296 207.149 116.254 206.933 116.242C206.729 116.23 206.537 116.224 206.357 116.224H204.413ZM206.501 122.272C206.741 122.272 206.975 122.26 207.203 122.236C207.443 122.212 207.653 122.158 207.833 122.074C208.025 121.978 208.181 121.858 208.301 121.714C208.421 121.558 208.481 121.354 208.481 121.102C208.481 120.646 208.337 120.34 208.049 120.184C207.773 120.028 207.431 119.95 207.023 119.95H204.413V122.272H206.501ZM217.284 114.514H219.336V122.254H222.504V114.514H224.538V122.254H227.724V114.514H229.776V124H217.284V114.514ZM236.28 114.352C237.036 114.352 237.702 114.472 238.278 114.712C238.854 114.952 239.34 115.288 239.736 115.72C240.144 116.14 240.45 116.65 240.654 117.25C240.858 117.85 240.96 118.516 240.96 119.248C240.96 119.992 240.858 120.664 240.654 121.264C240.462 121.852 240.168 122.362 239.772 122.794C239.376 123.226 238.884 123.556 238.296 123.784C237.72 124.012 237.048 124.126 236.28 124.126C235.524 124.126 234.858 124.012 234.282 123.784C233.706 123.544 233.22 123.214 232.824 122.794C232.44 122.362 232.146 121.846 231.942 121.246C231.75 120.646 231.654 119.98 231.654 119.248C231.654 118.516 231.75 117.85 231.942 117.25C232.146 116.65 232.446 116.14 232.842 115.72C233.238 115.288 233.724 114.952 234.3 114.712C234.876 114.472 235.536 114.352 236.28 114.352ZM236.28 122.344C236.748 122.344 237.144 122.266 237.468 122.11C237.804 121.942 238.074 121.72 238.278 121.444C238.494 121.168 238.65 120.844 238.746 120.472C238.854 120.1 238.908 119.698 238.908 119.266C238.908 118.834 238.854 118.432 238.746 118.06C238.65 117.676 238.494 117.346 238.278 117.07C238.074 116.794 237.804 116.578 237.468 116.422C237.144 116.266 236.748 116.188 236.28 116.188C235.824 116.188 235.428 116.266 235.092 116.422C234.768 116.578 234.498 116.794 234.282 117.07C234.078 117.346 233.922 117.676 233.814 118.06C233.718 118.432 233.67 118.834 233.67 119.266C233.67 119.698 233.718 120.1 233.814 120.472C233.922 120.844 234.078 121.168 234.282 121.444C234.498 121.72 234.768 121.942 235.092 122.11C235.428 122.266 235.824 122.344 236.28 122.344ZM242.825 124V114.514H244.859V118.384H246.317L248.747 114.514H251.087L248.081 119.032L251.321 124H248.945L246.443 120.166H244.859V124H242.825ZM256.566 114.352C257.322 114.352 257.988 114.472 258.564 114.712C259.14 114.952 259.626 115.288 260.022 115.72C260.43 116.14 260.736 116.65 260.94 117.25C261.144 117.85 261.246 118.516 261.246 119.248C261.246 119.992 261.144 120.664 260.94 121.264C260.748 121.852 260.454 122.362 260.058 122.794C259.662 123.226 259.17 123.556 258.582 123.784C258.006 124.012 257.334 124.126 256.566 124.126C255.81 124.126 255.144 124.012 254.568 123.784C253.992 123.544 253.506 123.214 253.11 122.794C252.726 122.362 252.432 121.846 252.228 121.246C252.036 120.646 251.94 119.98 251.94 119.248C251.94 118.516 252.036 117.85 252.228 117.25C252.432 116.65 252.732 116.14 253.128 115.72C253.524 115.288 254.01 114.952 254.586 114.712C255.162 114.472 255.822 114.352 256.566 114.352ZM256.566 122.344C257.034 122.344 257.43 122.266 257.754 122.11C258.09 121.942 258.36 121.72 258.564 121.444C258.78 121.168 258.936 120.844 259.032 120.472C259.14 120.1 259.194 119.698 259.194 119.266C259.194 118.834 259.14 118.432 259.032 118.06C258.936 117.676 258.78 117.346 258.564 117.07C258.36 116.794 258.09 116.578 257.754 116.422C257.43 116.266 257.034 116.188 256.566 116.188C256.11 116.188 255.714 116.266 255.378 116.422C255.054 116.578 254.784 116.794 254.568 117.07C254.364 117.346 254.208 117.676 254.1 118.06C254.004 118.432 253.956 118.834 253.956 119.266C253.956 119.698 254.004 120.1 254.1 120.472C254.208 120.844 254.364 121.168 254.568 121.444C254.784 121.72 255.054 121.942 255.378 122.11C255.714 122.266 256.11 122.344 256.566 122.344ZM263.904 119.482C263.964 118.666 264 117.856 264.012 117.052C264.036 116.236 264.06 115.39 264.084 114.514H271.176V124H269.106V116.296H265.992C265.968 116.884 265.944 117.472 265.92 118.06C265.908 118.636 265.884 119.212 265.848 119.788C265.836 120.004 265.812 120.262 265.776 120.562C265.752 120.85 265.716 121.144 265.668 121.444C265.62 121.732 265.548 122.008 265.452 122.272C265.356 122.524 265.236 122.758 265.092 122.974C264.84 123.334 264.504 123.598 264.084 123.766C263.676 123.922 263.202 124 262.662 124H262.158V122.236C262.518 122.236 262.806 122.152 263.022 121.984C263.25 121.804 263.418 121.582 263.526 121.318C263.646 121.042 263.73 120.748 263.778 120.436C263.838 120.112 263.88 119.794 263.904 119.482ZM279.531 122.83C279.219 123.274 278.805 123.604 278.289 123.82C277.773 124.024 277.197 124.126 276.561 124.126C276.057 124.126 275.595 124.066 275.175 123.946C274.767 123.826 274.407 123.646 274.095 123.406C273.783 123.154 273.537 122.848 273.357 122.488C273.177 122.116 273.087 121.696 273.087 121.228C273.087 120.712 273.189 120.274 273.393 119.914C273.597 119.542 273.873 119.242 274.221 119.014C274.581 118.786 275.001 118.618 275.481 118.51C275.961 118.39 276.465 118.33 276.993 118.33H279.423C279.423 117.634 279.267 117.094 278.955 116.71C278.643 116.326 278.097 116.128 277.317 116.116C276.861 116.116 276.465 116.194 276.129 116.35C275.805 116.506 275.589 116.764 275.481 117.124H273.375C273.447 116.62 273.609 116.194 273.861 115.846C274.125 115.498 274.437 115.21 274.797 114.982C275.169 114.754 275.577 114.592 276.021 114.496C276.477 114.4 276.933 114.352 277.389 114.352C277.977 114.352 278.523 114.43 279.027 114.586C279.531 114.742 279.969 115.006 280.341 115.378C280.761 115.81 281.043 116.326 281.187 116.926C281.331 117.526 281.403 118.18 281.403 118.888V124H279.621L279.531 122.83ZM279.423 119.788H277.443C277.095 119.788 276.747 119.818 276.399 119.878C276.051 119.926 275.751 120.052 275.499 120.256C275.259 120.448 275.139 120.73 275.139 121.102C275.139 121.558 275.301 121.906 275.625 122.146C275.961 122.374 276.369 122.488 276.849 122.488C277.221 122.488 277.563 122.44 277.875 122.344C278.199 122.248 278.475 122.092 278.703 121.876C278.931 121.648 279.105 121.366 279.225 121.03C279.357 120.682 279.423 120.268 279.423 119.788ZM284.632 117.898C284.668 117.322 284.692 116.764 284.704 116.224C284.716 115.672 284.722 115.102 284.722 114.514H292.03V122.254H293.272V126.772H291.274V124H284.794V126.772H282.796V122.254C283.144 122.254 283.432 122.146 283.66 121.93C283.9 121.702 284.062 121.45 284.146 121.174C284.23 120.982 284.302 120.724 284.362 120.4C284.422 120.064 284.47 119.734 284.506 119.41C284.542 119.086 284.572 118.786 284.596 118.51C284.62 118.234 284.632 118.03 284.632 117.898ZM289.978 116.296H286.594C286.57 116.728 286.552 117.196 286.54 117.7C286.528 118.204 286.51 118.69 286.486 119.158C286.462 119.386 286.438 119.632 286.414 119.896C286.402 120.16 286.372 120.43 286.324 120.706C286.276 120.97 286.21 121.234 286.126 121.498C286.042 121.762 285.928 122.014 285.784 122.254H289.978V116.296ZM296.39 119.95C296.414 120.298 296.486 120.622 296.606 120.922C296.726 121.222 296.888 121.486 297.092 121.714C297.296 121.93 297.548 122.104 297.848 122.236C298.16 122.368 298.52 122.434 298.928 122.434C299.36 122.434 299.756 122.356 300.116 122.2C300.488 122.044 300.758 121.774 300.926 121.39H303.032C302.912 121.87 302.714 122.284 302.438 122.632C302.174 122.98 301.856 123.268 301.484 123.496C301.124 123.712 300.722 123.874 300.278 123.982C299.846 124.078 299.384 124.126 298.892 124.126C298.136 124.126 297.47 124.012 296.894 123.784C296.33 123.556 295.856 123.226 295.472 122.794C295.088 122.362 294.8 121.852 294.608 121.264C294.428 120.664 294.338 119.992 294.338 119.248C294.338 118.528 294.44 117.874 294.644 117.286C294.848 116.686 295.142 116.17 295.526 115.738C295.922 115.306 296.396 114.97 296.948 114.73C297.5 114.478 298.13 114.352 298.838 114.352C299.582 114.352 300.224 114.478 300.764 114.73C301.304 114.97 301.754 115.3 302.114 115.72C302.486 116.14 302.762 116.632 302.942 117.196C303.122 117.76 303.212 118.372 303.212 119.032C303.212 119.344 303.194 119.65 303.158 119.95H296.39ZM301.214 118.402C301.178 117.658 300.944 117.094 300.512 116.71C300.092 116.326 299.54 116.134 298.856 116.134C298.472 116.134 298.136 116.194 297.848 116.314C297.56 116.434 297.314 116.596 297.11 116.8C296.918 117.004 296.762 117.244 296.642 117.52C296.522 117.796 296.444 118.09 296.408 118.402H301.214Z" fill="#9F1836"/>
</svg>
